<?xml version="1.0" encoding="utf-8"?>
<!-- Generator: Adobe Illustrator 21.0.2, SVG Export Plug-In . SVG Version: 6.00 Build 0)  -->
<svg version="1.1" id="Layer_1" xmlns="http://www.w3.org/2000/svg" xmlns:xlink="http://www.w3.org/1999/xlink" x="0px" y="0px"
	 viewBox="0 0 100 100" style="enable-background:new 0 0 100 100;" xml:space="preserve">
<path d="M94.9,84l-6.1-47.5c-0.4-3.5-3.4-6.1-6.9-6.1H69.2c0.5-3.9-0.1-7.9-1.9-11.5c-3.1-6.3-9.1-10.3-16-10.7c-0.9,0-1.8,0-2.7,0
	c-6.9,0.4-12.9,4.4-16,10.7c-1.8,3.7-2.4,7.7-1.9,11.5H18.1c-3.5,0-6.5,2.6-6.9,6.1L5.1,84c-0.3,2,0.3,4,1.7,5.5s3.2,2.4,5.2,2.4H88
	c2,0,3.9-0.9,5.2-2.4S95.2,86,94.9,84z M38.1,21.5c2.1-4.3,6.2-7.1,11-7.4c0.6,0,1.3,0,2,0c4.7,0.3,8.8,3,11,7.4
	c2.2,4.5,1.9,9.7-0.9,13.8L50,51.8L39,35.4C36.2,31.2,35.8,26.1,38.1,21.5z M88.8,85.5c-0.1,0.1-0.3,0.3-0.7,0.3H12
	c-0.4,0-0.6-0.2-0.7-0.3c-0.1-0.1-0.3-0.4-0.2-0.8l6.1-47.5c0.1-0.5,0.5-0.8,1-0.8h14.6c0.4,0.8,0.8,1.5,1.3,2.3l13.5,20.1
	c0.1,0.2,0.3,0.4,0.5,0.6c-0.2,0.2-0.4,0.4-0.6,0.6c-0.8,0.8-0.8,2,0,2.8c0.4,0.4,0.9,0.6,1.4,0.6c0.5,0,1-0.2,1.4-0.6
	c0.6-0.7,1.2-1.2,1.6-1.6c0.5,0,1.3,0,2.2-0.1c1.1,0,1.9-1,1.9-2.1c-0.1-1.1-1-2-2.1-1.9c-0.1,0-0.1,0-0.2,0L66,38.7
	c0.5-0.7,0.9-1.5,1.3-2.3h14.6c0.5,0,0.9,0.4,1,0.8L89,84.8C89,85.1,88.9,85.4,88.8,85.5z M50,32.9c3.8,0,6.9-3.1,6.9-6.9
	S53.8,19,50,19s-6.9,3.1-6.9,6.9S46.2,32.9,50,32.9z M50,23c1.6,0,2.9,1.3,2.9,2.9c0,1.6-1.3,2.9-2.9,2.9c-1.6,0-2.9-1.3-2.9-2.9
	C47.1,24.3,48.4,23,50,23z M69.7,44c0.4-1,1.5-1.6,2.6-1.2l0.2,0.1c1.2,0.5,2.2,1.2,3.1,2.1c0.7,0.8,0.7,2.1-0.1,2.8
	c-0.4,0.3-0.9,0.5-1.3,0.5c-0.6,0-1.1-0.2-1.5-0.6c-0.4-0.5-1-0.8-1.6-1l-0.1-0.1C69.9,46.2,69.3,45,69.7,44z M67.8,57.6
	c0.2,1.1-0.5,2.1-1.6,2.3c-1.8,0.3-3.8,0.6-6.1,0.8c-0.1,0-0.1,0-0.2,0c-1,0-1.9-0.8-2-1.8c-0.1-1.1,0.7-2.1,1.8-2.2
	c2.2-0.2,4.2-0.5,5.8-0.7C66.6,55.8,67.7,56.5,67.8,57.6z M77.4,52.4c-0.5,1.9-1.5,3.5-3.1,4.6c-0.4,0.3-0.8,0.5-1.2,0.8
	c-0.2,0.1-0.3,0.2-0.5,0.3c-0.3,0.1-0.6,0.2-0.9,0.2c-0.7,0-1.4-0.4-1.8-1.1c-0.5-1-0.1-2.2,0.9-2.7c0.1,0,0.2-0.1,0.2-0.1
	c0.3-0.2,0.7-0.4,1-0.7c0.8-0.6,1.3-1.4,1.6-2.3c0.3-1.1,1.4-1.7,2.4-1.5C77,50.2,77.7,51.3,77.4,52.4z M45.7,64.4
	c0.7,0.9,0.6,2.1-0.3,2.8c-2,1.7-3.9,3-5.6,3.8c-0.3,0.2-0.6,0.2-0.9,0.2c-0.7,0-1.4-0.4-1.8-1.1c-0.5-1-0.1-2.2,0.8-2.7
	c1.4-0.8,3.1-1.9,4.9-3.4C43.7,63.5,45,63.6,45.7,64.4z M34.8,70.7c0,1.1-0.9,2-2,2c-2.8,0-5-0.4-6.8-0.9c-1.1-0.3-1.7-1.3-1.5-2.4
	c0.2-1.1,1.3-1.7,2.4-1.5c1.6,0.4,3.5,0.8,5.8,0.8C33.9,68.7,34.8,69.6,34.8,70.7z M24.2,61.1c-0.6,0.8-0.8,2.1-0.8,3
	c0,0.4,0,0.6,0.1,0.8c0,0.2,0.1,0.4,0.1,0.5c0.4,1-0.1,2.2-1.2,2.6c-0.2,0.1-0.5,0.1-0.7,0.1c-0.8,0-1.6-0.5-1.9-1.3
	c-0.1-0.4-0.3-0.8-0.3-1.2c-0.1-0.5-0.1-1-0.1-1.5c0-0.9,0.1-3.3,1.5-5.2c0.6-0.9,1.9-1.2,2.8-0.5C24.5,59,24.8,60.2,24.2,61.1z
	 M26,57.3c0.1-1.1,1.1-1.9,2.2-1.8c2,0.2,3.5,1,3.6,1c1,0.5,1.3,1.7,0.8,2.7c-0.4,0.7-1,1.1-1.8,1.1c-0.3,0-0.6-0.1-0.9-0.2
	c0,0-0.9-0.5-2.1-0.6C26.7,59.3,25.9,58.4,26,57.3z"/>
</svg>
