<?xml version="1.0" encoding="utf-8"?>
<!-- Generator: Adobe Illustrator 21.0.0, SVG Export Plug-In . SVG Version: 6.00 Build 0)  -->
<svg version="1.1" id="Capa_1" xmlns="http://www.w3.org/2000/svg" xmlns:xlink="http://www.w3.org/1999/xlink" x="0px" y="0px"
	 viewBox="0 0 461 272" style="enable-background:new 0 0 461 272;" xml:space="preserve">
<style type="text/css">
	.st0{fill:#545454;}
</style>
<g>
	<path class="st0" d="M294.2,207.1c1.3,8.2,3.2,16.1,7.5,23.2c3.9,6.4,9.2,10.5,16.8,11.5c6.4,0.8,12.3-0.7,17.4-4.5
		c2.8-2,5.3-4.4,7.7-6.8c6.2-6.6,11.6-13.9,17-21.1c0.9-1.3,0.9-2.7,1.1-4.1c0.8-5.4,1.4-11,2.5-16.3c4.7-21.3,14.1-40.3,28.4-56.9
		c5.6-6.5,12.1-11.9,20.1-15.1c5.6-2.2,11.4-3.2,17.4-2.3c6.5,1,11.7,4.2,15.6,9.4c5.9,7.9,7.5,17,6.4,26.6
		c-0.3,2.8-1.7,4.9-3.8,6.7c-0.9,0.7-1.8,1.4-2.7,2c-5,3.3-10,6.6-15.1,9.8c-0.9,0.6-1.9,1.1-3,1.5c-1.4,0.5-2.3,0.1-2.7-1.4
		c-0.2-1.1-0.2-2.2-0.2-3.3c0.4-4.5,0.8-8.9,1.2-13.4c0.4-4.6,0.5-9.3-0.8-13.8c-0.6-1.9-1.4-3.8-2.5-5.4c-1.8-2.8-4.4-3.6-7.7-2.8
		c-2.3,0.6-4.2,1.9-5.9,3.6c-2.7,2.7-4.7,5.9-6.4,9.2c-4.2,8.2-6.9,17-8.7,26.1c-1.5,7.6-2.1,15.2-2.2,22.9
		c-0.1,9.8,0.6,19.5,4.1,28.8c1.1,2.8,2.4,5.6,3.9,8.2c7.9,13.2,20.5,14.4,31.7,9.1c3.2-1.5,6-3.7,8.6-6.1c6.4-6,11.9-12.8,17-19.8
		c1.1-1.5,2.1-3,3.5-4.8c0.1,0.8,0.2,1.2,0.2,1.7c0,5.8,0,11.5,0,17.3c0,0.8-0.2,1.8-0.7,2.4c-8.4,11.1-17.2,21.9-28.1,30.7
		c-6.6,5.4-13.8,9.5-22.2,11.2c-14.6,3.1-26.9-0.8-36.3-12.7c-6-7.6-9.5-16.4-11.2-25.9c-0.2-1-0.4-2-0.6-3.3
		c-0.6,0.6-1,1.1-1.4,1.5c-6.4,8.3-13,16.5-20.5,23.8c-3.2,3-6.5,6-10,8.6c-7.8,5.8-16.6,8.9-26.3,9.1c-12.1,0.2-21.6-4.8-28.8-14.4
		c-3.5-4.7-6.2-9.9-8-15.5c-0.3-1-0.7-1.9-1.1-3.3c-1,1.1-1.9,2.1-2.7,3c-6.4,7.2-13,14.1-20.7,20c-5.2,4-10.8,7.4-17.3,9.1
		c-10.8,2.8-19.9,0.1-26.9-8.8c-1.8-2.3-3.4-4.9-4.7-7.5c-3.4-6.4-5.2-13.4-6.2-20.6c-1.7-11.4-1.5-22.8-0.6-34.2
		c0.8-10.1,1.7-20.2,3.2-30.3c1.7-11.5,3.8-22.9,6.1-34.2c6.4-30.5,14.5-60.6,24.8-90c1.8-5.3,3.8-10.5,5.7-15.8
		c0.4-1.2,1.1-2,2.3-2.6c10.4-5.2,20.7-10.5,31-15.7c0.5-0.3,1-0.5,1.5-0.7c2.1-0.8,3.6-0.6,4.9,1.2c1.1,1.4,2,3.1,2.6,4.8
		c2.1,5.4,2.6,11,2.8,16.7c0.9,30.8-5,60.2-16.9,88.6c-8.8,20.9-20,40.5-32.6,59.4c-1.1,1.7-1.6,3.4-1.7,5.4
		c-0.2,7-0.7,13.9-0.8,20.9c-0.1,7.7,0.3,15.4,2.7,22.8c0.9,2.6,2,5.1,3.4,7.4c3.4,5.4,7.9,7,14,5.1c4.3-1.3,8-3.8,11.1-6.9
		c4-4,7.7-8.4,11.5-12.6c0.7-0.8,0.8-1.7,0.8-2.6c0-4.6-0.2-9.3,0.1-13.9c1.7-27.7,10.9-52.6,28.8-74c5-5.9,10.8-10.9,17.9-14.3
		c6.4-3,13-4.2,20.1-3.2c8.6,1.3,14.6,6.1,18.6,13.6c3.6,6.8,4.4,14.1,3.7,21.7c-1,11.4-6.1,20.9-13.8,29.1
		c-8,8.5-17.6,14.8-27.9,20.1c-4.5,2.3-9.1,4.3-13.7,6.4C295.8,206.4,295.1,206.8,294.2,207.1z M224.5,156.1c0.7-0.9,1.4-1.7,2-2.6
		c16.3-26.2,27-54.6,32.9-84.9c1.6-8.4,2.4-16.9,2.1-25.5c-0.1-3-0.5-5.9-1.7-8.7c-0.6-1.4-1.2-2.9-3-3.2c-1.9-0.3-2.6,1.3-3.5,2.5
		c-0.7,1-1.3,2-1.8,3.1c-0.9,2-1.8,4.1-2.6,6.2c-4.1,11.2-7.3,22.7-10.1,34.2c-5.9,24.2-10,48.6-13.9,73.2
		C224.8,152.4,224.8,154.3,224.5,156.1c0,0.1-0.1,0.2-0.2,0.3C224.4,156.4,224.5,156.2,224.5,156.1z M293.2,194.9
		c3.3-1.6,6.2-2.9,9-4.4c8.9-4.9,15.9-11.8,20.1-21.1c4-8.7,5-17.9,4.3-27.4c-0.2-2.6-0.8-5.2-1.8-7.6c-2-4.8-6.7-6.4-11.3-3.9
		c-1.3,0.7-2.6,1.6-3.6,2.7c-1.7,1.9-3.3,3.9-4.6,6.1c-4.2,6.8-6.9,14.2-8.7,21.9c-2,8.5-2.9,17.1-3.3,25.8
		C293.2,189.4,293.2,191.9,293.2,194.9z"/>
	<path class="st0" d="M11.5,1.5c18.5,0,37,0,55.6,0c0,0.9,0,1.8,0,2.6c-0.9,13.5-1.8,27-2.7,40.4c-0.6,9.7-1.1,19.5-1.6,29.2
		c-0.8,15.2-1.5,30.3-2.2,45.5c-0.4,7.7-0.8,15.5-1,23.2c-0.7,22.1-1.5,44.1-2.1,66.2c-0.5,17.4-0.7,34.9-1,52.3c0,2.2,0,4.5,0,6.8
		c-18.7,0-37.2,0-55.9,0c0-0.6,0-1.3,0-2c0.9-11.2,1.8-22.5,2.7-33.7c0.6-8.8,1.2-17.7,1.6-26.6c0.8-15.5,1.5-31,2.2-46.5
		c0.4-7.7,0.8-15.3,1-23c0.6-18,1.1-36,1.7-53.9c0.3-11.4,0.6-22.7,0.9-34.1c0.3-14.9,0.5-29.7,0.8-44.6C11.4,2.8,11.4,2.2,11.5,1.5
		z"/>
	<path class="st0" d="M197.8,268c-1.2,0-1.9,0-2.6,0c-18.6-0.5-37.3-0.5-55.9,0.1c-2,0.1-3-0.6-3.9-2.2c-9-14.8-18-29.7-27.9-43.9
		c-11.7-16.7-23.4-33.4-35-50.1c-3.4-4.8-6.5-9.9-9.7-14.9c23.5-29,47.8-57.2,69.3-87.3c20.9,0,41.5,0,62.3,0
		c-25.1,29.4-51,57.9-75.5,87.7c12.5,19.1,25.7,37.5,39,55.8C171,231.2,184.3,249.4,197.8,268z"/>
</g>
</svg>
