<?xml version="1.0" encoding="utf-8"?>
<!-- Generator: Adobe Illustrator 21.0.0, SVG Export Plug-In . SVG Version: 6.00 Build 0)  -->
<svg version="1.1" id="Capa_1" xmlns="http://www.w3.org/2000/svg" xmlns:xlink="http://www.w3.org/1999/xlink" x="0px" y="0px"
	 viewBox="0 0 395 400" style="enable-background:new 0 0 395 400;" xml:space="preserve">
<style type="text/css">
	.st0{fill:#424242;}
	.st1{fill:#FDDC00;}
</style>
<g>
	<path class="st0" d="M8.9,400.5c0.6-3.6,1.2-7.2,1.8-10.7c2.7-15.7,5.4-31.3,8.1-47c2.5-14.7,5-29.4,7.7-44.1c0.3-1.7,0-3-0.8-4.4
		c-11.1-19.5-18.6-40.4-22.5-62.4c-2.8-15.6-3.5-31.2-2.5-47c1.8-28.3,9.3-54.9,22.6-79.8C36.8,79.7,54.9,58.4,77.6,41
		c25.1-19.1,53.1-31.6,84-37.3c10.8-2,21.8-3.1,32.8-3.2c44.2-0.5,84.2,12.1,119.8,38.1c28.6,20.8,50,47.6,64.3,80
		c7.6,17.2,12.8,35.2,14.9,53.9c6.6,58.4-8.9,110.2-47.4,154.7c-25.9,30-58.4,50-96.7,60.4c-15.7,4.3-31.6,6.5-47.9,6.8
		c-27.7,0.5-54.3-4.5-79.8-15.1c-4-1.6-7.9-3.5-11.8-5.4c-1.1-0.5-2-0.6-3.2-0.3c-32.3,8.9-64.7,17.8-97,26.7
		C9.5,400.4,9.3,400.4,8.9,400.5z"/>
	<path class="st1" d="M154.3,284.4c-6.8,0-13.5,0-20.3,0c-1.5,0-1.9-0.3-1.8-1.8c1-12,2.1-24,3-36c0.5-7.4,0.7-14.8,1.1-22.2
		c0.7-13.6,1.3-27.2,2-40.8c0.6-12.1,0.8-24.2,1.2-36.3c0.5-16.9,1.1-33.8,1.2-50.7c0-3.3,0.2-6.6,0.1-9.8c0-1.7,0.3-2.3,2.2-2.3
		c9,0.2,18.1,0.2,27.2,0.2c4.4,0,8.8,0,13.2-0.2c1.3,0,1.6,0.3,1.5,1.6c-1.3,18-2.7,36.1-3.6,54.1c-0.7,13.5-1.3,27.1-2,40.6
		c-0.6,12.5-1.4,25-1.6,37.5c-0.3,14.5-0.7,29.1-1.2,43.6c-0.2,6.8-0.3,13.6-0.2,20.5c0,1.6-0.3,2.1-2,2.1
		C167.6,284.3,161,284.4,154.3,284.4z"/>
	<path class="st1" d="M287.7,284.3c-4.5,0-8.6,0-12.8,0c-11.2,0-22.4,0.1-33.6,0.2c-1.1,0-1.9-0.2-2.6-1.3
		c-15-24.5-32.5-47.1-49.4-70.3c-2.4-3.3-4.6-6.8-7-10.2c-0.8-1.2-0.8-1.9,0.2-3c11.7-13.6,23.4-27.1,34.9-40.8
		c6.1-7.2,11.8-14.7,17.7-22.1c0.6-0.8,1.2-1.2,2.2-1.2c15.6,0.2,31.2,0.2,46.8,0c0.2,0,0.5,0,1.1,0.1c-4.3,4.7-8.4,9.2-12.5,13.7
		c-15.2,16.9-30.8,33.3-45.6,50.5c-1.2,1.4-1.1,2.2-0.1,3.6c12.7,18.1,26.2,35.6,39.6,53.2C273.4,265.8,280.5,274.9,287.7,284.3z"/>
</g>
</svg>
