<?xml version="1.0" encoding="utf-8"?>
<!-- Generator: Adobe Illustrator 21.0.0, SVG Export Plug-In . SVG Version: 6.00 Build 0)  -->
<svg version="1.1" id="Capa_1" xmlns="http://www.w3.org/2000/svg" xmlns:xlink="http://www.w3.org/1999/xlink" x="0px" y="0px"
	 viewBox="0 0 395 400" style="enable-background:new 0 0 395 400;" xml:space="preserve">
<style type="text/css">
	.st0{fill:#FEDD00;}
	.st1{fill:#585857;}
</style>
<g>
	<path class="st0" d="M10.4,398c1.8-10.4,3.5-20.5,5.3-30.5c3.2-18.5,6.4-37,9.6-55.5c0.8-4.8,1.6-9.7,2.5-14.5
		c0.3-1.6,0.1-2.9-0.7-4.2c-11.1-19.4-18.5-40-22.3-62c-2.6-15-3.5-30.1-2.6-45.3c1.6-28.2,9.1-54.8,22.4-79.8
		c13.2-24.8,31-45.8,53.2-62.9c25.3-19.5,53.6-31.9,85-37.6c14.6-2.6,29.4-3.5,44.2-2.7C249,5.2,286.7,19.4,319.6,46
		c28.8,23.2,49.3,52.4,61.6,87.3c5.2,14.7,8.4,29.7,9.9,45.2c3.6,38.9-3.5,75.8-22,110.2c-20.9,38.9-51.7,67.5-91.9,86
		c-18,8.3-37,13.5-56.6,15.8c-38.5,4.5-75.3-1.6-110.1-18.7c-1.3-0.6-2.5-0.8-3.9-0.4c-31.4,8.7-62.8,17.3-94.2,25.9
		C11.8,397.6,11.2,397.8,10.4,398z"/>
	<path class="st1" d="M154,283.3c-6.7,0-13.4,0-20,0c-1.5,0-1.9-0.4-1.7-1.9c1-11.9,2.1-23.7,3-35.6c0.5-6.5,0.6-12.9,0.9-19.4
		c0.9-17.6,1.8-35.2,2.6-52.8c0.4-8.5,0.4-17,0.6-25.5c0.5-16.9,1-33.8,1.2-50.7c0-3.2,0.2-6.4,0.1-9.5c-0.1-2.1,0.6-2.4,2.5-2.4
		c9,0.1,18,0.2,27,0.2c4.1,0,8.3,0,12.4-0.2c1.4,0,1.7,0.4,1.6,1.8c-0.8,10.9-1.5,21.7-2.3,32.6c-1.5,20.4-2.2,40.8-3.2,61.1
		c-0.6,12.3-1.3,24.6-1.6,36.9c-0.3,14.4-0.7,28.8-1.2,43.1c-0.2,6.7-0.2,13.5-0.2,20.2c0,1.6-0.3,2.1-2,2.1
		C167.2,283.2,160.6,283.3,154,283.3z"/>
	<path class="st1" d="M283.4,136.2c-8.4,9.2-16.5,18.1-24.6,27c-11,12.2-22.4,24.1-33,36.7c-1.1,1.3-1,2-0.1,3.3
		c11.4,16.3,23.4,32,35.5,47.8c7.9,10.3,15.8,20.6,23.7,30.8c0.3,0.4,0.6,0.8,1.1,1.5c-2.4,0-4.4,0-6.5,0
		c-13.2-0.2-26.3-0.1-39.5,0.1c-1,0-1.8-0.1-2.4-1.1c-13.3-21.7-28.6-42-43.7-62.4c-4.2-5.6-8.2-11.3-12.1-17.1
		c-0.8-1.2-0.8-2,0.2-3.1c16.9-19.7,34.3-39.1,50-59.8c2-2.7,4-3.7,7.3-3.6c13.9,0.4,27.7,0.2,41.6,0.1
		C281.6,136.2,282.3,136.2,283.4,136.2z"/>
</g>
</svg>
