<?xml version="1.0" encoding="utf-8"?>
<!-- Generator: Adobe Illustrator 21.0.0, SVG Export Plug-In . SVG Version: 6.00 Build 0)  -->
<svg version="1.1" id="Capa_1" xmlns="http://www.w3.org/2000/svg" xmlns:xlink="http://www.w3.org/1999/xlink" x="0px" y="0px"
	 viewBox="0 0 401 201" style="enable-background:new 0 0 401 201;" xml:space="preserve">
<style type="text/css">
	.st0{fill:#FFDE00;}
</style>
<g>
	<path class="st0" d="M240.1,178.1c13.7,0.4,14.4,0.1,25.4-11.4c15.5,7.9,23.1-2.9,30.4-12.4c5.7,1.2,10.8,3,16,3.3
		c8.7,0.6,12.7-4,11.8-12.6c-0.3-3.1-1.4-6.1-1.9-9.2c-3.3-20.8-6.5-41.7-9.8-62.6c-1.6-10.5-3.3-20.9-4.8-30.9
		c-7.8,0.5-15.1,1.4-22.3,1.3c-2.5,0-5.2-2.3-7.4-4c-3.3-2.8-5.7-7.3-9.4-8.9c-19-8.3-38.3-16-57.5-23.9c-1.2-0.5-2.6-0.6-3.9-0.7
		c-17.6-0.6-35.2-0.9-52.7-2c-8.2-0.5-14.1,2.4-18.9,8.7c-3.8,5-7.5,10.2-11.8,14.8c-1.8,1.9-4.8,2.9-7.4,4
		c-4.1,1.7-8.7,2.5-12.4,4.7c-4,2.4-4.4,6.6-2,9.9c5.4,7.7,24,12.8,32.3,8.3c7.3-3.9,13.9-9.1,21-13.2c3.8-2.2,8-4.8,12.1-4.8
		c10.7-0.2,21.7-0.1,32.2,1.8c18.9,3.3,36.5,11,54,18.7c1,0.5,2,1.2,2.8,2.1c20.2,20.1,39.3,41.1,55.9,64.3c5,6.9,9.4,14.4,9.3,23.2
		c0,2.6-1.5,6.2-3.6,7.5c-6.2,4-20.9-1.1-24.4-7.7c-4.6-8.7-8.8-17.7-16.9-23.8c-13.2-9.8-26.5-19.5-39.8-29.2
		c-0.7-0.5-1.7-0.6-2.6-0.9c-0.2,0.4-0.4,0.8-0.6,1.1c7.4,5.4,14.8,11.1,22.3,16.3c15.1,10.5,29.6,21.6,36.5,39.7
		c0.5,1.2,1.3,2.5,1.2,3.7c-1,6.2-13.4,15.2-19.6,13.8c-2.5-0.6-6.3-3-6.4-4.7c-0.2-5.2-2.8-8.4-6.5-11.1c-13-9.6-26-19-39.1-28.5
		c-0.7-0.5-1.7-0.6-2.6-0.8c-0.2,0.4-0.4,0.8-0.6,1.2c3.2,2.3,6.4,4.5,9.5,6.9c11.1,8.4,22.2,16.9,33.4,25.3c3,2.3,4.5,5.3,2.3,8.6
		c-2,3.2-4.5,6.3-7.3,8.7c-4.7,4-13.5,4.1-17.3,1.5c-10.2-7.1-20.6-13.8-31-20.7c-0.8-0.5-1.9-0.6-2.9-0.9c1.3,2.3,3.1,3.5,4.9,4.7
		c7.6,4.8,15.3,9.4,22.7,14.4c1.8,1.3,3.8,3.6,4.1,5.7c0.7,6.1-3.1,12.3-9.1,14c-5.6,1.6-11.7,2.5-17.6,2.2c-3.5-0.2-8.9-2.5-10-5.2
		c-2.1-5.3-5.9-6.3-10.1-7.3c-3.7-0.8-4.7-2.3-3.7-6.2c1.1-4.2,1.4-8.9,0.8-13.2c-0.8-5.4-6.1-8.9-11.5-9.4
		c-5.9-0.5-7.8,3.5-9.3,7.9c-3.1,9.3-6,18.7-9,28c-1.4,4.2,0,7.5,3.9,9c4.6,1.7,9.4,3.4,14.3,3.8c9.1,0.9,16.3-3.6,22-10.2
		C216,202.3,233.9,196.9,240.1,178.1z M5,134.2c-0.3,6,2.3,9.3,7.7,10.6c9.2,2.3,18.4,4.5,27.6,6.6c9.5,2.2,12.5,0.5,14.8-8.7
		C64.4,105.8,73.5,68.9,82.6,32c1.8-7.5-0.5-11.2-8.1-13.1c-8.9-2.2-17.7-4.3-26.6-6.5c-9.1-2.2-12.5-0.3-14.8,8.8
		c-7.2,28.5-14.2,57-21.3,85.5C9.4,116.3,7,125.8,5,134.2z M398.1,143.9c-0.1-0.7-0.1-1.7-0.3-2.7C391.9,103.2,386,65.1,380.1,27
		c-1-6.3-5.2-9.3-11.8-8.3c-9.9,1.5-19.7,3.1-29.5,4.7c-7.1,1.1-9.9,5.1-8.7,12.3c3.2,20.5,6.3,41.1,9.5,61.6
		c2.7,17.2,5.3,34.5,8,51.7c1.1,7,5.2,10.5,11.5,9.6c10.4-1.5,20.7-3.1,31-4.8C395.3,153,398.2,149.4,398.1,143.9z M131.2,175.4
		c-0.8,11.3,7.2,19.1,18,17.8c3.6-0.4,5.2-2.1,6.1-5.4c2.4-8.3,4.9-16.6,7.8-24.7c1.4-3.8,3.2-7.9,5.8-10.8
		c5.5-6.2,5.3-12.8-1.5-17.8c-8.4-6.1-18.2-3.9-24.8,5.8C135.4,150.8,132.2,162.8,131.2,175.4z M137.9,143.5
		c-8.5-6.7-16.6-6.5-23.6,0.5c-6.6,6.7-10.4,15-12.5,24c-1.7,7.2,1.7,12.4,8.6,15.4c5.4,2.4,10.8,1.5,15.9-0.7
		c1.1-0.5,2.3-2.1,2.3-3.2C128.5,166.8,132,154.9,137.9,143.5z M94.5,137.4c-12.2-0.2-20.4,8.6-20.4,19c0,7.5,8.9,15.6,17.3,15.5
		c3.9,0,6.6-1.2,7.9-5.8c1.5-5.3,4.3-10.4,6.9-15.3c1.5-2.8,1.6-5.4-0.8-7.1C101.3,140.9,96.7,138.7,94.5,137.4z"/>
	<path class="st0" d="M240.1,178.1c-6.2,18.8-24.1,24.2-42.6,12.6c-5.7,6.7-12.9,11.1-22,10.2c-4.8-0.5-9.7-2.1-14.3-3.8
		c-3.9-1.5-5.3-4.7-3.9-9c3-9.3,5.9-18.7,9-28c1.5-4.4,3.4-8.4,9.3-7.9c5.5,0.4,10.7,4,11.5,9.4c0.6,4.3,0.3,9-0.8,13.2
		c-1,4,0,5.4,3.7,6.2c4.3,1,8,2,10.1,7.3c1.1,2.7,6.4,5,10,5.2c5.8,0.3,11.9-0.6,17.6-2.2c6-1.7,9.8-7.9,9.1-14
		c-0.2-2.1-2.2-4.5-4.1-5.7c-7.4-5-15.1-9.7-22.7-14.4c-1.9-1.2-3.7-2.4-4.9-4.7c1,0.3,2.1,0.3,2.9,0.9c10.4,6.8,20.8,13.6,31,20.7
		c3.8,2.6,12.6,2.5,17.3-1.5c2.9-2.4,5.3-5.5,7.3-8.7c2.2-3.4,0.7-6.3-2.3-8.6c-11.1-8.4-22.2-16.9-33.4-25.3
		c-3.1-2.4-6.3-4.6-9.5-6.9c0.2-0.4,0.4-0.8,0.6-1.2c0.9,0.3,1.9,0.3,2.6,0.8c13.1,9.5,26.1,18.9,39.1,28.5
		c3.7,2.7,6.3,5.9,6.5,11.1c0.1,1.7,3.9,4.1,6.4,4.7c6.1,1.4,18.6-7.6,19.6-13.8c0.2-1.1-0.7-2.5-1.2-3.7
		c-6.9-18.1-21.3-29.2-36.5-39.7c-7.6-5.3-14.9-10.9-22.3-16.3c0.2-0.4,0.4-0.8,0.6-1.1c0.9,0.3,1.9,0.4,2.6,0.9
		c13.3,9.7,26.6,19.4,39.8,29.2c8.2,6.1,12.3,15.1,16.9,23.8c3.5,6.6,18.2,11.7,24.4,7.7c2-1.3,3.5-4.9,3.6-7.5
		c0.1-8.9-4.3-16.3-9.3-23.2C295.3,100.1,276.2,79.1,256,59c-0.8-0.8-1.7-1.6-2.8-2.1c-17.5-7.8-35.1-15.4-54-18.7
		c-10.5-1.9-21.5-1.9-32.2-1.8c-4.1,0.1-8.4,2.7-12.1,4.8c-7.2,4.2-13.8,9.3-21,13.2c-8.3,4.5-26.9-0.6-32.3-8.3
		c-2.4-3.3-2-7.5,2-9.9c3.7-2.2,8.3-3,12.4-4.7c2.6-1.1,5.6-2,7.4-4c4.3-4.6,8-9.8,11.8-14.8c4.8-6.3,10.6-9.2,18.9-8.7
		c17.6,1.1,35.2,1.3,52.7,2c1.3,0,2.7,0.2,3.9,0.7c19.2,7.8,38.5,15.5,57.5,23.9c3.7,1.6,6.1,6.2,9.4,8.9c2.1,1.8,4.9,4,7.4,4
		c7.2,0.1,14.5-0.8,22.3-1.3c1.6,10,3.2,20.5,4.8,30.9c3.3,20.9,6.5,41.7,9.8,62.6c0.5,3.1,1.6,6.1,1.9,9.2
		c0.9,8.6-3.1,13.2-11.8,12.6c-5.2-0.3-10.3-2.1-16-3.3c-7.3,9.5-14.9,20.3-30.4,12.4C254.5,178.2,253.8,178.5,240.1,178.1z"/>
	<path class="st0" d="M5,134.2c2.1-8.4,4.5-17.9,6.8-27.4c7.1-28.5,14.2-57,21.3-85.5c2.3-9.2,5.7-11.1,14.8-8.8
		c8.9,2.2,17.8,4.3,26.6,6.5c7.5,1.9,9.9,5.6,8.1,13.1c-9.1,36.9-18.3,73.8-27.5,110.7c-2.3,9.2-5.3,10.9-14.8,8.7
		c-9.2-2.1-18.4-4.3-27.6-6.6C7.2,143.4,4.6,140.1,5,134.2z"/>
	<path class="st0" d="M398.1,143.9c0.1,5.5-2.8,9.1-8.2,9.9c-10.3,1.7-20.7,3.3-31,4.8c-6.3,0.9-10.4-2.6-11.5-9.6
		c-2.7-17.2-5.4-34.5-8-51.7c-3.2-20.5-6.3-41.1-9.5-61.6c-1.1-7.2,1.7-11.2,8.7-12.3c9.8-1.6,19.7-3.1,29.5-4.7
		c6.6-1,10.8,1.9,11.8,8.3c5.9,38.1,11.9,76.1,17.8,114.2C398,142.2,398.1,143.2,398.1,143.9z"/>
	<path class="st0" d="M131.1,175.4c1.1-12.6,4.3-24.5,11.4-35.1c6.6-9.7,16.3-11.9,24.8-5.8c6.8,5,7.1,11.6,1.5,17.8
		c-2.7,3-4.5,7-5.8,10.8c-2.9,8.1-5.4,16.4-7.8,24.7c-1,3.3-2.6,4.9-6.1,5.4C138.4,194.5,130.3,186.7,131.1,175.4z"/>
	<path class="st0" d="M137.9,143.5c-5.9,11.4-9.3,23.2-9.3,36c0,1.1-1.3,2.7-2.3,3.2c-5.2,2.2-10.5,3-15.9,0.7
		c-6.9-3-10.2-8.2-8.6-15.4c2.1-9,5.9-17.3,12.5-24C121.3,137,129.3,136.8,137.9,143.5z"/>
	<path class="st0" d="M94.5,137.4c2.3,1.3,6.8,3.5,10.9,6.4c2.4,1.7,2.3,4.3,0.8,7.1c-2.7,4.9-5.4,10-6.9,15.3
		c-1.3,4.6-4,5.7-7.9,5.8c-8.3,0.1-17.3-8-17.3-15.5C74.1,146,82.2,137.2,94.5,137.4z"/>
</g>
</svg>
