<?xml version="1.0" encoding="utf-8"?>
<!-- Generator: Adobe Illustrator 21.0.2, SVG Export Plug-In . SVG Version: 6.00 Build 0)  -->
<svg version="1.1" id="Layer_1" xmlns="http://www.w3.org/2000/svg" xmlns:xlink="http://www.w3.org/1999/xlink" x="0px" y="0px"
	 viewBox="0 0 100 100" style="enable-background:new 0 0 100 100;" xml:space="preserve">
<path d="M58.2,48.5l-7.6-5.7l-6.6-4.9c-0.4-0.3-0.8-0.4-1.1-0.4c-1,0-1.9,0.8-1.9,1.9V50v10.6c0,1.1,0.9,1.9,1.9,1.9
	c0.4,0,0.8-0.1,1.1-0.4l6.6-4.9l7.6-5.7C59.3,50.8,59.3,49.2,58.2,48.5z M48.2,54L45,56.5V50v-6.5l3.2,2.4l5.4,4L48.2,54z M91,6H9
	c-2.2,0-4,1.8-4,4v80c0,2.2,1.8,4,4,4h82c2.2,0,4-1.8,4-4V10C95,7.8,93.2,6,91,6z M89,28H75V12h14V28z M25,48H11V32h14V48z M25,52
	v16H11V52H25z M29,12h42v76H29V12z M75,52h14v16H75V52z M75,48V32h14v16H75z M25,12v16H11V12H25z M11,72h14v16H11V72z M75,88V72h14
	v16H75z"/>
</svg>
